PathFileType	4	(X/Y/Z)	./resultDataOpenSim/trcMotMarkerGrf/sub10/qtm-03-08.trc
DataRate	CameraRate	NumFrames	NumMarkers	Units	OrigDataRate	OrigDataStartFrame	OrigNumFrames
250.000000	250.000000	14	24	m	250.000000	249	496
Frame#	Time	L.Toe.Tip			R.Toe.Tip			L.Ankle.Lat			R.Ankle.Lat			L.Ankle.Med			R.Ankle.Med			L.Heel			R.Heel			L.Knee.Lat			R.Knee.Lat			L.Knee.Med			R.Knee.Med			L.Thigh.Upper			R.Thigh.Upper			L.ASIS			R.ASIS			V.Sacral			L.Acromium			R.Acromium			C7			L.Elbow			R.Elbow			L.Wrist.Lat			R.Wrist.Lat
		X1	Y1	Z1	X2	Y2	Z2	X3	Y3	Z3	X4	Y4	Z4	X5	Y5	Z5	X6	Y6	Z6	X7	Y7	Z7	X8	Y8	Z8	X9	Y9	Z9	X10	Y10	Z10	X11	Y11	Z11	X12	Y12	Z12	X13	Y13	Z13	X14	Y14	Z14	X15	Y15	Z15	X16	Y16	Z16	X17	Y17	Z17	X18	Y18	Z18	X19	Y19	Z19	X20	Y20	Z20	X21	Y21	Z21	X22	Y22	Z22	X23	Y23	Z23	X24	Y24	Z24

249	0.992	0.07621591	-0.0081692123	-0.12060739	0.13722735	0.079065419	0.062062863	-0.051726197	0.037813702	-0.15991043	0.021761587	0.16095612	0.051485439	-0.048792571	0.061267826	-0.077965609	0.078894042	0.16505692	-0.016003524	-0.12154149	0.019713204	-0.11878551	-0.017699902	0.1526835	-0.009684967	0.052780807	0.41463962	-0.18575538	0.23831665	0.47630236	0.10892124	0.043925704	0.39253466	-0.063184283	0.29493305	0.48425791	-0.011545768	0.093207142	0.80938317	-0.24110751	0.044134926	0.83141593	0.13424155	0.14325733	0.9168749	-0.17067296	0.12144376	0.93019199	0.068767387	-0.063796853	0.93850528	-0.066961074	0.1017695	1.3822168	-0.2280192	0.054742661	1.3963077	0.092909323	-0.0029142494	1.4191611	-0.089339415	0.068464358	1.0378139	-0.30513027	-0.056300096	1.0697249	0.12496035	0.26929026	0.890695	-0.29694523	0.0085568229	0.8481809	0.20708791
250	0.996	0.07633624	-0.0081230919	-0.12067084	0.15725161	0.077710581	0.061872705	-0.051411264	0.038491958	-0.16002797	0.039201609	0.15585023	0.051095577	-0.048280751	0.062025101	-0.078111389	0.096453632	0.16160376	-0.01601843	-0.12135397	0.020829763	-0.11872411	0.00077482202	0.14617536	-0.010352927	0.053510268	0.41520541	-0.18640253	0.24701738	0.47813411	0.10889447	0.045223931	0.39334447	-0.063799568	0.30337841	0.48727992	-0.011214623	0.096381716	0.80981407	-0.24167195	0.051319242	0.83280851	0.13462881	0.14760497	0.91745201	-0.17130005	0.12736836	0.93107171	0.068160118	-0.05905016	0.93905711	-0.065840422	0.10719886	1.3828656	-0.22794715	0.059949985	1.3966975	0.093042675	0.0026063509	1.4197786	-0.089285053	0.077650572	1.0381497	-0.30552999	-0.053867375	1.0712272	0.12435155	0.28107053	0.89431996	-0.29508924	0.0076813951	0.84931761	0.20834508
251	1	0.076449686	-0.0080842058	-0.12074216	0.17732573	0.076411184	0.061737861	-0.051096691	0.039133662	-0.16015026	0.056749856	0.15075129	0.050673814	-0.047783138	0.06274732	-0.078283843	0.11414077	0.15821217	-0.016398742	-0.12119708	0.02194561	-0.11871938	0.019678931	0.13962873	-0.01121345	0.054267932	0.41577765	-0.1870204	0.25555045	0.47985867	0.10886877	0.046317455	0.39407969	-0.064315237	0.31164967	0.49008573	-0.010896798	0.099673024	0.81022702	-0.24199445	0.058573663	0.83411805	0.13502784	0.15182564	0.91793509	-0.1720076	0.1333156	0.9318668	0.067568479	-0.054149823	0.93945207	-0.064808636	0.11259558	1.3834274	-0.22786255	0.065203297	1.396981	0.093164416	0.0081249771	1.4203069	-0.089215463	0.086973814	1.0384771	-0.30590108	-0.051514026	1.0726213	0.12373454	0.29278694	0.89793072	-0.29316504	0.006805797	0.85045349	0.20953586
252	1.004	0.076577653	-0.0080510907	-0.12083357	0.19745155	0.075169573	0.061660181	-0.050789002	0.039733137	-0.16026428	0.074415888	0.14564135	0.050268123	-0.047286878	0.063445871	-0.078500504	0.13195365	0.15487211	-0.017074557	-0.12102274	0.023025209	-0.11877521	0.038686245	0.13317442	-0.012127392	0.055054308	0.41638894	-0.18758813	0.26392775	0.48146228	0.10884571	0.047239998	0.39472645	-0.064765249	0.31975821	0.4926681	-0.010601372	0.1029649	0.81060971	-0.24216451	0.065742839	0.8352792	0.13536378	0.15587883	0.9183116	-0.17283141	0.13927588	0.93258013	0.0669851	-0.04913303	0.93966335	-0.063875828	0.11796972	1.3839014	-0.22777198	0.070502037	1.3971584	0.093270544	0.013650419	1.4207523	-0.089115568	0.096435227	1.0387896	-0.30621178	-0.049127387	1.0739017	0.12316625	0.30442147	0.90151514	-0.29119694	0.0060074289	0.85158471	0.21070423
253	1.008	0.076727337	-0.0080297831	-0.12094045	0.2176389	0.073988746	0.061639667	-0.050506426	0.040286061	-0.1603509	0.092204506	0.14050033	0.049943123	-0.046772218	0.064135143	-0.078769594	0.14989854	0.15151561	-0.017738845	-0.12083291	0.024063456	-0.11886677	0.057645284	0.126886	-0.013018223	0.055851495	0.41700822	-0.1881143	0.27215852	0.48292332	0.10880698	0.048193147	0.39526149	-0.065252074	0.32770703	0.49502129	-0.010337944	0.10611412	0.81094063	-0.24236089	0.073054475	0.83635092	0.13575704	0.15985738	0.91861083	-0.17370621	0.14524857	0.93321584	0.066411758	-0.04408775	0.93971151	-0.062943534	0.12334803	1.3842877	-0.22768374	0.075821693	1.3972299	0.093375494	0.019188208	1.4211181	-0.088985367	0.10595603	1.0390678	-0.30648612	-0.046552508	1.0750475	0.12264407	0.31594706	0.90506675	-0.28922141	0.0053229476	0.8526919	0.21187712
254	1.012	0.076870895	-0.0080330559	-0.12102922	0.23788501	0.072888115	0.061685046	-0.050310542	0.04081556	-0.16037181	0.11011498	0.13535952	0.049715732	-0.046257444	0.064826398	-0.079065072	0.16795939	0.14809914	-0.018200888	-0.12064236	0.02505927	-0.11897926	0.076648696	0.12075482	-0.013935742	0.056630565	0.41756652	-0.18862694	0.28022919	0.48421814	0.1087206	0.049292581	0.39568286	-0.065825342	0.3354915	0.49714358	-0.010103577	0.10912519	0.81122133	-0.24265511	0.080727102	0.83740094	0.13632396	0.16387427	0.91886847	-0.17454434	0.15123613	0.93378035	0.065859291	-0.039105776	0.93965014	-0.061875157	0.12874206	1.3845771	-0.22759838	0.081134261	1.3972008	0.093496181	0.024729213	1.4214033	-0.088842984	0.11543579	1.0392913	-0.30677812	-0.043744067	1.076051	0.12213322	0.32737141	0.90859305	-0.28724161	0.0047517058	0.85375248	0.21305887
255	1.016	0.076971929	-0.00806197	-0.12107357	0.25813722	0.071919292	0.061823432	-0.050287679	0.041376001	-0.16029333	0.12816919	0.1303037	0.049464744	-0.045796853	0.065515764	-0.079331181	0.1861244	0.14467374	-0.018470971	-0.12043922	0.025989082	-0.11912721	0.095826886	0.11474071	-0.014904765	0.057385947	0.41803902	-0.18914093	0.28810408	0.48532236	0.10854942	0.050466384	0.39602495	-0.066428885	0.3431043	0.49903412	-0.0098828429	0.11206296	0.81146621	-0.24300787	0.088553544	0.83838946	0.13695482	0.16795691	0.91909347	-0.17532049	0.15723379	0.93427649	0.065335596	-0.034243407	0.9395073	-0.060667347	0.13414298	1.3847616	-0.22751827	0.086443861	1.3970752	0.093629789	0.030257855	1.4216017	-0.088708023	0.12483161	1.0394566	-0.30711176	-0.040782123	1.0769395	0.12164705	0.33872472	0.91210588	-0.28523222	0.0042560936	0.85475762	0.21422656
256	1.02	0.077029861	-0.008097532	-0.12109123	0.27831331	0.07114544	0.062083622	-0.050398983	0.041989264	-0.16017866	0.14638863	0.12539137	0.04900658	-0.045422475	0.066180707	-0.07952961	0.20441693	0.14135801	-0.018600234	-0.12021511	0.026838709	-0.11931773	0.11521084	0.10881127	-0.015848491	0.058141829	0.41845915	-0.18965638	0.2957838	0.4862356	0.10829711	0.051595299	0.39632375	-0.066979253	0.35054488	0.50069087	-0.0096695499	0.11497812	0.81168319	-0.24334932	0.096036456	0.83919885	0.13738267	0.1720587	0.9192652	-0.17607953	0.16323519	0.93469971	0.06483444	-0.029520049	0.93927651	-0.05947973	0.13953921	1.3848428	-0.22745039	0.091777206	1.3968559	0.093759116	0.035769277	1.4217062	-0.088580818	0.13416839	1.0395775	-0.30746894	-0.037755071	1.0777576	0.12126158	0.3500102	0.91560793	-0.28318446	0.0037830088	0.85571987	0.21534962
257	1.024	0.077070008	-0.0081222696	-0.12111546	0.29838318	0.07059356	0.062462643	-0.050441737	0.042604542	-0.1601789	0.16477053	0.12061127	0.048326483	-0.045118679	0.066795229	-0.079677993	0.22286262	0.13823912	-0.018636987	-0.11998205	0.0276224	-0.11953676	0.13477631	0.10296751	-0.016694604	0.058924238	0.41886638	-0.19017623	0.30335299	0.48700276	0.10804926	0.052641273	0.3965895	-0.067454451	0.35782549	0.50211259	-0.0094729802	0.11792448	0.81186616	-0.24362778	0.10295136	0.83977186	0.13748788	0.17610493	0.91934443	-0.17689849	0.16924596	0.93504217	0.064343792	-0.024922698	0.93896202	-0.058457991	0.14492917	1.384825	-0.22739637	0.097140651	1.3965467	0.093874028	0.04127218	1.4217149	-0.088447877	0.14349123	1.0396703	-0.30781904	-0.034701098	1.0785372	0.12104855	0.36120001	0.91908976	-0.28111662	0.0033251222	0.8566572	0.21642675
258	1.028	0.077106992	-0.0081354319	-0.12115693	0.31838587	0.07024998	0.062929588	-0.050274445	0.043162128	-0.16036599	0.18332453	0.11593379	0.04760291	-0.044851496	0.067347253	-0.079827286	0.24144175	0.13531981	-0.018636477	-0.11975538	0.02836137	-0.11976909	0.15448854	0.097252198	-0.017429065	0.059745473	0.41926991	-0.19070182	0.31088898	0.48766017	0.10788643	0.05364009	0.3968173	-0.067889754	0.36496204	0.50329802	-0.0093054711	0.1209398	0.81198856	-0.24383376	0.10952424	0.84016095	0.13739596	0.1800624	0.91930536	-0.17781148	0.17529208	0.9352995	0.06387048	-0.02036037	0.93860481	-0.057554532	0.1503221	1.3847079	-0.22734879	0.10251747	1.3961496	0.093977403	0.046774635	1.4216318	-0.088303022	0.15282719	1.0397466	-0.30814656	-0.03164815	1.0792744	0.12097713	0.37227197	0.92253787	-0.27904733	0.0029332368	0.85757425	0.21749034
259	1.032	0.077138451	-0.0081427604	-0.12120917	0.33835778	0.070097285	0.063457581	-0.04995783	0.043651552	-0.16065974	0.20208265	0.11133911	0.046994077	-0.044601218	0.067846579	-0.080005964	0.26009781	0.13256004	-0.018632782	-0.11954479	0.029069406	-0.12001175	0.1743165	0.091724962	-0.018067572	0.060608331	0.41964555	-0.19121506	0.31834054	0.48816749	0.10777042	0.054652906	0.39700356	-0.068329215	0.37195994	0.50424414	-0.0091757181	0.12400974	0.8120087	-0.24401264	0.11608917	0.84044782	0.13728953	0.18401088	0.91917488	-0.17874351	0.18140612	0.93547276	0.063440999	-0.015615342	0.93824033	-0.056588001	0.15572796	1.3844873	-0.22729796	0.10789503	1.3956623	0.094078278	0.05227267	1.4214621	-0.088153299	0.16217986	1.0398167	-0.30845912	-0.028638068	1.0799362	0.1209159	0.38322126	0.92594318	-0.27698428	0.0026401592	0.85845971	0.21856669
260	1.036	0.07715643	-0.0081458959	-0.12126387	0.35829024	0.070127775	0.064029227	-0.049628002	0.044090737	-0.16093856	0.22105657	0.10680909	0.046521419	-0.044365141	0.068312501	-0.080203285	0.27877532	0.1299385	-0.01863166	-0.11935201	0.029755118	-0.12027023	0.19424846	0.086431006	-0.018644585	0.061515676	0.41995966	-0.19168389	0.32559195	0.48844186	0.10760495	0.055729738	0.39714867	-0.068794739	0.3788087	0.50494749	-0.0090891031	0.1270944	0.81191077	-0.24423528	0.1228102	0.84066918	0.13725639	0.18808538	0.91901149	-0.17956346	0.18758833	0.93556427	0.063064831	-0.010290422	0.93780107	-0.0555568	0.16114663	1.3841617	-0.22724161	0.1132714	1.3950811	0.094184666	0.057755238	1.4212034	-0.088008027	0.17154363	1.0398905	-0.30877247	-0.025688016	1.0804973	0.1207618	0.39403611	0.92930104	-0.2749416	0.0024399782	0.85929889	0.21965703
261	1.04	0.07715524	-0.0081440986	-0.12131353	0.37814904	0.070327571	0.064623683	-0.049354021	0.044498186	-0.16114665	0.24019339	0.10238279	0.046118169	-0.044142628	0.06875236	-0.080394969	0.29743103	0.1274667	-0.018626203	-0.11917139	0.030422163	-0.12054542	0.21426975	0.081391112	-0.019187563	0.062463708	0.42019708	-0.19208074	0.33259875	0.48843105	0.10735634	0.056882303	0.39725315	-0.069272768	0.38548788	0.50540514	-0.0090466969	0.13018777	0.81174488	-0.24452966	0.12968639	0.84081669	0.13729518	0.19231536	0.91883185	-0.18022593	0.19379313	0.93557493	0.062708603	-0.0037594607	0.93707217	-0.054862697	0.16656928	1.3837369	-0.22718764	0.11864586	1.3944051	0.094295568	0.063218687	1.4208473	-0.087869875	0.18090997	1.0399637	-0.30908607	-0.022768215	1.0809585	0.12051568	0.40469474	0.93261009	-0.27294187	0.0023577563	0.86009218	0.22076035
262	1.044	0.077136358	-0.0081399104	-0.12135329	0.39790398	0.070662068	0.065219581	-0.049130409	0.044888909	-0.16129516	0.25936541	0.098196457	0.045722856	-0.043929314	0.06916017	-0.08056363	0.31602567	0.12516809	-0.018604313	-0.11899793	0.031067888	-0.12082457	0.23433655	0.076610278	-0.019687449	0.063389148	0.42035922	-0.19236874	0.33939683	0.48812204	0.10705628	0.058085832	0.39731323	-0.069718779	0.3919818	0.50561535	-0.009042846	0.13332484	0.81158431	-0.24485765	0.13666838	0.8408743	0.13738131	0.19659753	0.91859371	-0.1808061	0.19997059	0.93550583	0.062318945	0.0044619873	0.93585264	-0.055005469	0.17199	1.3832215	-0.22714615	0.12401465	1.3936407	0.094399548	0.068670354	1.4203891	-0.087736879	0.19025783	1.0400031	-0.30938531	-0.01983174	1.0813317	0.12023062	0.41520485	0.93587727	-0.27098011	0.0024518796	0.86086147	0.22188906
